<svg width="250" height="250" xmlns="http://www.w3.org/2000/svg">
 <defs>
  <linearGradient spreadMethod="pad" y2="0" x2="1" y1="0" x1="0" id="svg_18">
   <stop offset="0" stop-color="#000"/>
   <stop offset="1" stop-color="#ffffff"/>
  </linearGradient>
 </defs>
 <g>
  <title>Background</title>
  <rect fill="none" id="canvas_background" height="250" width="250" y="0" x="0"/>
  <g display="none" overflow="visible" y="0" x="0" height="100%" width="100%" id="canvasGrid">
   <rect fill="url(#gridpattern)" stroke-width="0" y="0" x="0" height="100%" width="100%"/>
  </g>
 </g>
 <g>
  <title>Layer 1</title>
  <rect id="svg_1" height="50" width="50" y="9.75" x="9.75" stroke-width="0" stroke="#000" fill="#424fb9"/>
  <rect id="svg_2" height="50" width="50" y="10.171875" x="190.25" stroke-width="0" stroke="#000" fill="#424fb9"/>
  <rect id="svg_4" height="50" width="50" y="9.75" x="70.25" stroke-width="0" stroke="#000" fill="#424fb9"/>
  <rect id="svg_5" height="50" width="50" y="9.75" x="130.25" stroke-width="0" stroke="#000" fill="#424fb9"/>
  <rect id="svg_6" height="50" width="50" y="69.75" x="9.75" stroke-width="0" stroke="#000" fill="#424fb9"/>
  <rect id="svg_7" height="50" width="50" y="69.75" x="190.25" stroke-width="0" stroke="#000" fill="#424fb9"/>
  <rect id="svg_8" height="50" width="50" y="69.75" x="70.25" stroke-width="0" stroke="#000" fill="#424fb9"/>
  <rect id="svg_9" height="50" width="50" y="69.75" x="130.25" stroke-width="0" stroke="#000" fill="#424fb9"/>
  <rect id="svg_10" height="50" width="50" y="129.75" x="9.75" stroke-width="0" stroke="#000" fill="#424fb9"/>
  <rect id="svg_11" height="50" width="50" y="129.75" x="190.25" stroke-width="0" stroke="#000" fill="#424fb9"/>
  <rect id="svg_12" height="50" width="50" y="129.75" x="70.25" stroke-width="0" stroke="#000" fill="#424fb9"/>
  <rect id="svg_13" height="50" width="50" y="129.75" x="130.25" stroke-width="0" stroke="#000" fill="#424fb9"/>
  <rect id="svg_14" height="50" width="50" y="189.75" x="9.75" stroke-width="0" stroke="#000" fill="#424fb9"/>
  <rect id="svg_16" height="50" width="50" y="189.75" x="70.25" stroke-width="0" stroke="#000" fill="#424fb9"/>
  <rect id="svg_17" height="50" width="50" y="189.75" x="130.25" stroke-width="0" stroke="#000" fill="#424fb9"/>
  <path id="svg_19" d="m-398.5,222.421875" opacity="0.5" fill-opacity="0" stroke-width="1.5" stroke="#424fb9" fill="url(#svg_18)"/>
 </g>
</svg>
